<svg preserveAspectRatio="none" width="100%" height="100%" overflow="visible" style="display: block;" viewBox="0 0 91.4271 66.1996" fill="none" xmlns="http://www.w3.org/2000/svg">
<path id="Vector" d="M48.1287 0C49.0763 0.0256075 50.2501 0.0213395 51.0013 0.746885C60.6991 10.0595 70.1023 19.7775 79.5439 29.3589C83.5178 33.3921 87.6539 37.4936 91.4271 41.7018C89.6856 43.2254 87.7947 44.4631 85.8953 45.7861C82.297 42.8028 76.172 36.3412 72.706 32.8416L49.0122 8.7748C43.092 14.3914 36.6553 21.1475 30.8379 26.9903C23.965 33.9171 15.5123 42.9992 8.43446 49.3712C12.323 53.1952 16.1683 57.0662 19.9702 60.9757C18.3059 63.195 17.1428 64.2747 15.1546 66.1996C10.491 61.7994 5.21184 56.8528 1.04334 51.9533C0.533699 51.3515 -0.308894 49.862 0.11581 49.0255C0.990827 47.3013 2.23337 45.6794 3.54547 44.2497C12.0434 35.6541 20.9805 26.5763 29.4763 18.0703C32.5598 14.9846 45.367 1.65595 48.1287 0Z" fill="var(--fill-0, #FBFBFB)"/>
</svg>
