<svg preserveAspectRatio="none" width="100%" height="100%" overflow="visible" style="display: block;" viewBox="0 0 300.941 53.4887" fill="none" xmlns="http://www.w3.org/2000/svg">
<path id="Vector" d="M279.517 0C283.38 0.482274 297.362 15.8852 300.941 19.5087C299.022 21.9926 298.351 22.6626 295.987 24.7326C290.758 19.355 285.437 14.0713 280.026 8.88155C270.347 19.9354 257.604 31.2411 247.417 42.0603C244.142 45.5386 238.48 51.1979 233.87 52.1454C225.844 53.7971 215.672 53.2721 207.286 53.2721L172.533 53.2507L38.8631 53.3148C31.8075 53.302 24.7519 53.3318 17.6962 53.4001C13.2311 53.4385 8.67799 53.6861 4.25466 53.1355C-1.61692 52.4057 -1.16106 47.0708 4.08478 45.863C7.10381 45.1716 10.4408 45.7136 13.5572 45.7307L37.0525 45.7435L161.137 45.7008L203.729 45.7094C211.07 45.7094 225.762 46.3069 232.898 44.6851C235.376 44.1217 242.958 36.0809 245.184 33.8275L265.004 13.8835C268.744 10.0766 275.218 2.78268 279.517 0Z" fill="var(--fill-0, #FBFBFB)"/>
</svg>
